<mxfile host="app.diagrams.net" agent="Mozilla/5.0 (Windows NT 10.0; Win64; x64) AppleWebKit/537.36 (KHTML, like Gecko) Chrome/136.0.0.0 Safari/537.36 Edg/136.0.0.0" version="27.1.1">
  <diagram name="Page-1" id="T9PvDCejg7O3v9RjRj4F">
    <mxGraphModel dx="2799" dy="965" grid="1" gridSize="10" guides="1" tooltips="1" connect="1" arrows="1" fold="1" page="1" pageScale="1" pageWidth="850" pageHeight="1100" math="0" shadow="0">
      <root>
        <mxCell id="0" />
        <mxCell id="1" parent="0" />
        <mxCell id="cZ3PHc17sUf7XY00wx1u-16" value="" style="rounded=1;whiteSpace=wrap;html=1;arcSize=6;" vertex="1" parent="1">
          <mxGeometry x="-40" y="440" width="800" height="390" as="geometry" />
        </mxCell>
        <mxCell id="cZ3PHc17sUf7XY00wx1u-28" value="" style="endArrow=none;dashed=1;html=1;rounded=0;entryX=0.001;entryY=0.546;entryDx=0;entryDy=0;entryPerimeter=0;exitX=1.001;exitY=0.541;exitDx=0;exitDy=0;exitPerimeter=0;" edge="1" parent="1" source="cZ3PHc17sUf7XY00wx1u-16" target="cZ3PHc17sUf7XY00wx1u-16">
          <mxGeometry width="50" height="50" relative="1" as="geometry">
            <mxPoint x="560" y="610" as="sourcePoint" />
            <mxPoint x="610" y="560" as="targetPoint" />
          </mxGeometry>
        </mxCell>
        <mxCell id="cZ3PHc17sUf7XY00wx1u-1" value="" style="ellipse;whiteSpace=wrap;html=1;aspect=fixed;" vertex="1" parent="1">
          <mxGeometry x="80" y="40" width="40" height="40" as="geometry" />
        </mxCell>
        <mxCell id="cZ3PHc17sUf7XY00wx1u-2" value="" style="endArrow=none;html=1;rounded=0;entryX=0.5;entryY=1;entryDx=0;entryDy=0;" edge="1" parent="1" target="cZ3PHc17sUf7XY00wx1u-1">
          <mxGeometry width="50" height="50" relative="1" as="geometry">
            <mxPoint x="100" y="160" as="sourcePoint" />
            <mxPoint x="610" y="230" as="targetPoint" />
          </mxGeometry>
        </mxCell>
        <mxCell id="cZ3PHc17sUf7XY00wx1u-3" value="" style="endArrow=none;html=1;rounded=0;" edge="1" parent="1">
          <mxGeometry width="50" height="50" relative="1" as="geometry">
            <mxPoint x="140" y="100" as="sourcePoint" />
            <mxPoint x="60" y="100" as="targetPoint" />
          </mxGeometry>
        </mxCell>
        <mxCell id="cZ3PHc17sUf7XY00wx1u-4" value="" style="endArrow=none;html=1;rounded=0;" edge="1" parent="1">
          <mxGeometry width="50" height="50" relative="1" as="geometry">
            <mxPoint x="130" y="200" as="sourcePoint" />
            <mxPoint x="100" y="160" as="targetPoint" />
          </mxGeometry>
        </mxCell>
        <mxCell id="cZ3PHc17sUf7XY00wx1u-5" value="" style="endArrow=none;html=1;rounded=0;" edge="1" parent="1">
          <mxGeometry width="50" height="50" relative="1" as="geometry">
            <mxPoint x="70" y="200" as="sourcePoint" />
            <mxPoint x="100" y="160" as="targetPoint" />
          </mxGeometry>
        </mxCell>
        <mxCell id="cZ3PHc17sUf7XY00wx1u-6" value="&lt;font style=&quot;font-size: 18px;&quot;&gt;Khách hàng&lt;/font&gt;" style="text;html=1;align=center;verticalAlign=middle;whiteSpace=wrap;rounded=0;" vertex="1" parent="1">
          <mxGeometry x="40" y="220" width="120" height="30" as="geometry" />
        </mxCell>
        <mxCell id="cZ3PHc17sUf7XY00wx1u-7" value="&lt;font style=&quot;font-size: 18px;&quot;&gt;Hệ thống&lt;/font&gt;" style="rounded=1;whiteSpace=wrap;html=1;" vertex="1" parent="1">
          <mxGeometry x="540" y="130" width="180" height="70" as="geometry" />
        </mxCell>
        <mxCell id="cZ3PHc17sUf7XY00wx1u-8" value="" style="rounded=1;whiteSpace=wrap;html=1;" vertex="1" parent="1">
          <mxGeometry x="80" y="320" width="40" height="480" as="geometry" />
        </mxCell>
        <mxCell id="cZ3PHc17sUf7XY00wx1u-9" value="" style="rounded=1;whiteSpace=wrap;html=1;" vertex="1" parent="1">
          <mxGeometry x="610" y="320" width="40" height="480" as="geometry" />
        </mxCell>
        <mxCell id="cZ3PHc17sUf7XY00wx1u-10" value="" style="endArrow=none;dashed=1;html=1;rounded=0;entryX=0.5;entryY=1;entryDx=0;entryDy=0;exitX=0.5;exitY=0;exitDx=0;exitDy=0;" edge="1" parent="1" source="cZ3PHc17sUf7XY00wx1u-8" target="cZ3PHc17sUf7XY00wx1u-6">
          <mxGeometry width="50" height="50" relative="1" as="geometry">
            <mxPoint x="560" y="450" as="sourcePoint" />
            <mxPoint x="610" y="400" as="targetPoint" />
          </mxGeometry>
        </mxCell>
        <mxCell id="cZ3PHc17sUf7XY00wx1u-11" value="" style="endArrow=none;dashed=1;html=1;rounded=0;entryX=0.5;entryY=1;entryDx=0;entryDy=0;exitX=0.5;exitY=0;exitDx=0;exitDy=0;" edge="1" parent="1" source="cZ3PHc17sUf7XY00wx1u-9" target="cZ3PHc17sUf7XY00wx1u-7">
          <mxGeometry width="50" height="50" relative="1" as="geometry">
            <mxPoint x="560" y="450" as="sourcePoint" />
            <mxPoint x="610" y="400" as="targetPoint" />
          </mxGeometry>
        </mxCell>
        <mxCell id="cZ3PHc17sUf7XY00wx1u-12" value="" style="endArrow=classic;html=1;rounded=0;exitX=0.95;exitY=0.081;exitDx=0;exitDy=0;exitPerimeter=0;entryX=0.05;entryY=0.09;entryDx=0;entryDy=0;entryPerimeter=0;" edge="1" parent="1" source="cZ3PHc17sUf7XY00wx1u-8" target="cZ3PHc17sUf7XY00wx1u-9">
          <mxGeometry width="50" height="50" relative="1" as="geometry">
            <mxPoint x="560" y="450" as="sourcePoint" />
            <mxPoint x="610" y="400" as="targetPoint" />
          </mxGeometry>
        </mxCell>
        <mxCell id="cZ3PHc17sUf7XY00wx1u-13" value="Chọn sách" style="text;html=1;align=center;verticalAlign=middle;whiteSpace=wrap;rounded=0;" vertex="1" parent="1">
          <mxGeometry x="180" y="330" width="360" height="30" as="geometry" />
        </mxCell>
        <mxCell id="cZ3PHc17sUf7XY00wx1u-14" value="" style="endArrow=classic;html=1;rounded=0;exitX=0.975;exitY=0.113;exitDx=0;exitDy=0;exitPerimeter=0;entryX=0.975;entryY=0.21;entryDx=0;entryDy=0;entryPerimeter=0;" edge="1" parent="1" source="cZ3PHc17sUf7XY00wx1u-9" target="cZ3PHc17sUf7XY00wx1u-9">
          <mxGeometry width="50" height="50" relative="1" as="geometry">
            <mxPoint x="560" y="450" as="sourcePoint" />
            <mxPoint x="700" y="460" as="targetPoint" />
            <Array as="points">
              <mxPoint x="680" y="374" />
              <mxPoint x="680" y="421" />
            </Array>
          </mxGeometry>
        </mxCell>
        <mxCell id="cZ3PHc17sUf7XY00wx1u-15" value="Kiểm tra sản phẩm này đã được mua hay chưa" style="text;html=1;align=center;verticalAlign=middle;whiteSpace=wrap;rounded=0;" vertex="1" parent="1">
          <mxGeometry x="690" y="370" width="150" height="60" as="geometry" />
        </mxCell>
        <mxCell id="cZ3PHc17sUf7XY00wx1u-17" value="" style="endArrow=none;html=1;rounded=0;exitX=0;exitY=0.11;exitDx=0;exitDy=0;exitPerimeter=0;entryX=0;entryY=0.338;entryDx=0;entryDy=0;entryPerimeter=0;" edge="1" parent="1">
          <mxGeometry width="50" height="50" relative="1" as="geometry">
            <mxPoint x="-40" y="470.6600000000001" as="sourcePoint" />
            <mxPoint x="80" y="470" as="targetPoint" />
          </mxGeometry>
        </mxCell>
        <mxCell id="cZ3PHc17sUf7XY00wx1u-18" value="Alternative" style="text;html=1;align=center;verticalAlign=middle;whiteSpace=wrap;rounded=0;" vertex="1" parent="1">
          <mxGeometry x="-20" y="440" width="90" height="30" as="geometry" />
        </mxCell>
        <mxCell id="cZ3PHc17sUf7XY00wx1u-19" value="Đã mua" style="text;html=1;align=center;verticalAlign=middle;whiteSpace=wrap;rounded=0;" vertex="1" parent="1">
          <mxGeometry x="-30" y="470" width="100" height="30" as="geometry" />
        </mxCell>
        <mxCell id="cZ3PHc17sUf7XY00wx1u-20" value="" style="triangle;whiteSpace=wrap;html=1;direction=west;" vertex="1" parent="1">
          <mxGeometry x="120" y="470" width="10" height="20" as="geometry" />
        </mxCell>
        <mxCell id="cZ3PHc17sUf7XY00wx1u-21" value="" style="endArrow=none;dashed=1;html=1;rounded=0;entryX=0;entryY=0.5;entryDx=0;entryDy=0;exitX=-0.1;exitY=0.331;exitDx=0;exitDy=0;exitPerimeter=0;" edge="1" parent="1" source="cZ3PHc17sUf7XY00wx1u-9" target="cZ3PHc17sUf7XY00wx1u-20">
          <mxGeometry width="50" height="50" relative="1" as="geometry">
            <mxPoint x="560" y="610" as="sourcePoint" />
            <mxPoint x="610" y="560" as="targetPoint" />
          </mxGeometry>
        </mxCell>
        <mxCell id="cZ3PHc17sUf7XY00wx1u-22" value="Trả về thông tin sách và mục bình luận" style="text;html=1;align=center;verticalAlign=middle;whiteSpace=wrap;rounded=0;" vertex="1" parent="1">
          <mxGeometry x="200" y="480" width="350" height="30" as="geometry" />
        </mxCell>
        <mxCell id="cZ3PHc17sUf7XY00wx1u-23" value="Bình luận sản phẩm" style="text;html=1;align=center;verticalAlign=middle;whiteSpace=wrap;rounded=0;" vertex="1" parent="1">
          <mxGeometry x="160" y="530" width="410" height="30" as="geometry" />
        </mxCell>
        <mxCell id="cZ3PHc17sUf7XY00wx1u-24" value="" style="endArrow=classic;html=1;rounded=0;exitX=1;exitY=0.5;exitDx=0;exitDy=0;" edge="1" parent="1" source="cZ3PHc17sUf7XY00wx1u-8">
          <mxGeometry width="50" height="50" relative="1" as="geometry">
            <mxPoint x="560" y="610" as="sourcePoint" />
            <mxPoint x="610" y="560" as="targetPoint" />
          </mxGeometry>
        </mxCell>
        <mxCell id="cZ3PHc17sUf7XY00wx1u-25" value="" style="triangle;whiteSpace=wrap;html=1;direction=west;" vertex="1" parent="1">
          <mxGeometry x="120" y="590" width="15" height="20" as="geometry" />
        </mxCell>
        <mxCell id="cZ3PHc17sUf7XY00wx1u-26" value="" style="endArrow=none;dashed=1;html=1;rounded=0;exitX=0;exitY=0.5;exitDx=0;exitDy=0;entryX=-0.025;entryY=0.583;entryDx=0;entryDy=0;entryPerimeter=0;" edge="1" parent="1" source="cZ3PHc17sUf7XY00wx1u-25" target="cZ3PHc17sUf7XY00wx1u-9">
          <mxGeometry width="50" height="50" relative="1" as="geometry">
            <mxPoint x="560" y="450" as="sourcePoint" />
            <mxPoint x="610" y="400" as="targetPoint" />
          </mxGeometry>
        </mxCell>
        <mxCell id="cZ3PHc17sUf7XY00wx1u-27" value="Thông báo thành công, hiển thị bình luận" style="text;html=1;align=center;verticalAlign=middle;whiteSpace=wrap;rounded=0;" vertex="1" parent="1">
          <mxGeometry x="180" y="600" width="380" height="30" as="geometry" />
        </mxCell>
        <mxCell id="cZ3PHc17sUf7XY00wx1u-29" value="Chưa mua" style="text;html=1;align=center;verticalAlign=middle;whiteSpace=wrap;rounded=0;" vertex="1" parent="1">
          <mxGeometry x="-30" y="650" width="100" height="30" as="geometry" />
        </mxCell>
        <mxCell id="cZ3PHc17sUf7XY00wx1u-30" value="" style="triangle;whiteSpace=wrap;html=1;direction=west;" vertex="1" parent="1">
          <mxGeometry x="120" y="690" width="10" height="20" as="geometry" />
        </mxCell>
        <mxCell id="cZ3PHc17sUf7XY00wx1u-31" value="" style="endArrow=none;dashed=1;html=1;rounded=0;entryX=0;entryY=0.5;entryDx=0;entryDy=0;exitX=0;exitY=0.792;exitDx=0;exitDy=0;exitPerimeter=0;" edge="1" parent="1" source="cZ3PHc17sUf7XY00wx1u-9" target="cZ3PHc17sUf7XY00wx1u-30">
          <mxGeometry width="50" height="50" relative="1" as="geometry">
            <mxPoint x="560" y="610" as="sourcePoint" />
            <mxPoint x="610" y="560" as="targetPoint" />
          </mxGeometry>
        </mxCell>
        <mxCell id="cZ3PHc17sUf7XY00wx1u-32" value="Trả về thông tin sách, và các bình luận (chỉ đọc)" style="text;html=1;align=center;verticalAlign=middle;whiteSpace=wrap;rounded=0;" vertex="1" parent="1">
          <mxGeometry x="180" y="700" width="400" height="30" as="geometry" />
        </mxCell>
        <mxCell id="cZ3PHc17sUf7XY00wx1u-34" value="" style="endArrow=none;dashed=1;html=1;rounded=0;entryX=0.5;entryY=1;entryDx=0;entryDy=0;" edge="1" parent="1" target="cZ3PHc17sUf7XY00wx1u-8">
          <mxGeometry width="50" height="50" relative="1" as="geometry">
            <mxPoint x="100" y="890" as="sourcePoint" />
            <mxPoint x="610" y="560" as="targetPoint" />
          </mxGeometry>
        </mxCell>
        <mxCell id="cZ3PHc17sUf7XY00wx1u-35" value="" style="endArrow=none;dashed=1;html=1;rounded=0;entryX=0.5;entryY=1;entryDx=0;entryDy=0;" edge="1" parent="1">
          <mxGeometry width="50" height="50" relative="1" as="geometry">
            <mxPoint x="629.5" y="890" as="sourcePoint" />
            <mxPoint x="629.5" y="800" as="targetPoint" />
          </mxGeometry>
        </mxCell>
      </root>
    </mxGraphModel>
  </diagram>
</mxfile>
